<?xml version="1.0" encoding="utf-8"?>
<svg version="1.1" xmlns="http://www.w3.org/2000/svg" viewBox="0 0 833.81 74.8" xml:space="preserve">
  <g>
    <g>
      <path d="M93.81,47.58c-4.18,0-7.03-1.44-9.31-4.09c-1.09-1.27-1.87-2.74-2.7-4.18c-0.58-1.02-1.21-2-2.12-2.77 c-0.54-0.45-1.13-0.81-1.83-0.93c-0.97-0.17-1.76,0.19-2.42,0.86c-0.8,0.81-1.35,1.79-1.81,2.81c-0.83,1.85-1.4,3.79-1.99,5.72 c-1.03,3.37-1.8,6.8-2.57,10.24c-1,4.45-2.05,8.89-3.6,13.19c-0.55,1.54-1.18,3.04-2.16,4.37c-0.37,0.5-0.78,0.95-1.31,1.3 c-1.63,1.07-3.65,0.76-4.9-0.74c-0.86-1.04-1.34-2.26-1.79-3.5c-0.93-2.57-1.46-5.23-1.89-7.91c-0.6-3.82-1.17-7.65-1.72-11.47 c-0.51-3.53-0.99-7.07-1.7-10.57c-0.4-1.97-0.8-3.95-1.27-5.9c-0.32-1.35-0.85-2.63-1.5-3.86c-0.44-0.82-0.98-1.58-1.83-2.02 c-0.36-0.19-0.78-0.35-1.18-0.37c-0.54-0.02-1.04,0.23-1.45,0.59c-0.77,0.67-1.33,1.51-1.66,2.45c-0.6,1.67-1.13,3.36-1.66,5.05 c-0.89,2.85-1.72,5.73-2.64,8.57c-0.72,2.21-1.72,4.32-2.92,6.32c-0.6,1-1.3,1.92-2.28,2.6c-1.52,1.04-3.09,1.01-4.69,0.2 c-1.54-0.78-2.66-2.03-3.72-3.35c-1.05-1.3-2.08-2.62-3.16-3.89c-0.63-0.74-1.37-1.36-2.22-1.85c-1.01-0.59-2.12-0.9-3.28-0.94 c-1.86-0.06-3.67,0.3-5.42,0.88c-2.1,0.69-4.16,1.48-6.24,2.21C2.23,46.81,1.55,47,0.88,47.2c-0.04,0.01-0.07,0.03-0.11,0.03 c-0.26,0.02-0.53,0.07-0.7-0.2c-0.16-0.26-0.01-0.5,0.16-0.67c0.57-0.56,1.12-1.14,1.75-1.62c2.46-1.87,5.01-3.61,7.81-4.94 c1.51-0.72,3.06-1.33,4.71-1.66c2.02-0.4,3.97-0.25,5.8,0.79c0.9,0.51,1.62,1.26,2.34,1.99c0.81,0.83,1.61,1.67,2.45,2.47 c0.35,0.34,0.79,0.59,1.2,0.85c0.78,0.49,1.58,0.39,2.33-0.07c0.36-0.22,0.69-0.5,1.01-0.79c1.5-1.39,2.46-3.12,3.15-5.02 c0.85-2.32,1.42-4.72,2-7.12c1.14-4.75,2.29-9.5,3.71-14.18c1-3.28,2.12-6.51,3.61-9.6c0.77-1.61,1.68-3.14,2.99-4.39 c0.5-0.48,1.06-0.9,1.71-1.16c1.21-0.49,2.41-0.27,3.27,0.72c0.47,0.55,0.86,1.18,1.2,1.82c1.12,2.13,1.86,4.4,2.33,6.75 c0.44,2.19,0.78,4.41,1.1,6.62c0.31,2.09,0.54,4.18,0.79,6.28c0.23,1.92,0.42,3.85,0.65,5.77c0.32,2.65,0.62,5.3,1.02,7.94 c0.4,2.68,0.87,5.34,1.37,8c0.33,1.71,0.88,3.36,1.71,4.9c0.27,0.5,0.57,0.97,1.02,1.32c0.5,0.38,1.02,0.43,1.57,0.13 c0.61-0.32,1.03-0.84,1.41-1.39c0.88-1.27,1.38-2.72,1.82-4.18c0.97-3.22,1.69-6.51,2.4-9.8c0.73-3.4,1.48-6.78,2.68-10.05 c0.6-1.64,1.25-3.26,2.18-4.75c0.5-0.8,1.1-1.53,1.88-2.08c1.66-1.17,3.5-1.04,4.99,0.34c1.02,0.95,1.7,2.14,2.3,3.37 c0.94,1.91,1.59,3.94,2.29,5.95c0.87,2.53,1.79,5.04,3.08,7.39c0.7,1.27,1.5,2.47,2.56,3.47c1.44,1.37,3.18,2.09,5.13,2.3 c2.24,0.24,4.41-0.14,6.57-0.7c1.83-0.48,3.58-1.18,5.31-1.94c0.72-0.31,1.47-0.57,2.27-0.61c0.16-0.01,0.33,0,0.48,0.04 c0.31,0.09,0.4,0.33,0.17,0.56c-0.35,0.37-0.72,0.74-1.13,1.03c-2.13,1.52-4.45,2.72-6.77,3.91c-1.75,0.89-3.56,1.6-5.47,2.07 C95.72,47.4,94.46,47.57,93.81,47.58z"/>
    </g>
    <g>
      <path d="M226.82,34.83c0,12.53,0,25.06,0,37.79c-7.56,0-14.91,0-22.43,0c0-23.57,0-47.02,0-70.68c0.75-0.09,1.47-0.24,2.2-0.24 c7.32-0.02,14.65,0.05,21.97-0.06c1.82-0.03,2.69,0.72,3.47,2.23c6,11.67,12.06,23.3,18.11,34.94c0.12,0.22,0.32,0.39,0.82,0.98 c0-12.81,0-25.18,0-37.46c2.23-0.79,19.67-0.91,22.68-0.23c0,23.42,0,46.88,0,70.53c-8.84,0-17.55,0-26.65,0 c-6.52-12.46-13.15-25.13-19.78-37.81C227.08,34.83,226.95,34.83,226.82,34.83z"/>
      <path d="M134.02,1.85c8.18,0,16.12,0,24.45,0c0,1.13,0,2.14,0,3.16c0,12.94-0.02,25.87,0.03,38.81c0.01,1.88,0.17,3.82,0.62,5.64 c0.98,3.93,3.78,5.84,8.3,5.98c4.17,0.13,7.1-1.76,8.17-5.66c0.54-1.98,0.68-4.12,0.69-6.19c0.06-12.75,0.03-25.49,0.03-38.24 c0-1.04,0-2.08,0-3.05c2.1-0.72,20.86-0.89,24.47-0.24c0.04,0.86,0.11,1.78,0.11,2.7c0.01,12.65,0.02,25.3,0,37.95 c-0.01,4.28-0.22,8.54-1.24,12.74c-2.17,8.97-7.71,14.78-16.49,17.19c-10.47,2.88-21.09,2.87-31.57,0.02 c-10.25-2.79-15.54-10.05-17.05-20.28c-0.38-2.53-0.59-5.11-0.6-7.67c-0.06-13.51-0.03-27.01-0.03-40.52 C133.91,3.53,133.97,2.87,134.02,1.85z"/>
      <path d="M448.23,72.69c-8.78,0-17.11,0-25.74,0c-0.95-3.69-1.91-7.41-2.91-11.31c-6.6,0-13.1,0-19.79,0 c-0.96,3.73-1.89,7.39-2.88,11.24c-8.44,0-16.85,0-25.63,0c7.11-23.61,14.18-47.12,21.3-70.75c11.31,0,22.49,0,34.03,0 C433.77,25.33,440.96,48.88,448.23,72.69z M409.75,19.48c-1.98,8.67-3.89,16.98-5.83,25.48c3.93,0,7.64,0,11.54,0 C413.55,36.43,411.7,28.16,409.75,19.48z"/>
      <path d="M350.16,31.3c-0.18-1.43-0.3-2.66-0.5-3.86c-0.85-5.01-3.92-7.84-8.8-8.18c-5.18-0.36-8.62,1.95-10.16,6.85 c-0.2,0.63-0.4,1.28-0.47,1.93c-0.69,6.35-0.96,12.74,0.13,19.04c1.34,7.75,7.16,9.63,13.39,7.91c3.46-0.95,5.28-3.57,5.92-7.01 c0.24-1.3,0.32-2.63,0.53-4.36c7.94-0.05,15.85-0.04,24.06,0c-0.05,10.47-2.84,19.22-11.64,25.23c-3.92,2.68-8.33,4.15-12.96,4.93 c-6.9,1.16-13.8,1.28-20.69-0.24C316.14,70.7,308.34,62.81,306,50.01c-1.6-8.73-1.64-17.63,0.22-26.38 c2.58-12.1,10.11-19.58,22.12-22.29c8.96-2.02,17.97-1.8,26.78,0.98c12.2,3.85,19.58,14.11,18.98,28.89 C366.18,31.39,358.25,31.25,350.16,31.3z"/>
      <path d="M278.52,1.86c8.2,0,16.14,0,24.24,0c0,23.62,0,47.08,0,70.52c-2.14,0.58-21.14,0.66-24.24,0.09 C278.52,49.04,278.52,25.59,278.52,1.86z"/>
      <path d="M676.01,3.49c0.91-0.06,1.65-0.16,2.39-0.16c7.23-0.01,14.45-0.05,21.68,0.01c4.87,0.05,9.68,0.66,14.23,2.53 c10.77,4.41,16.85,12.61,18.97,23.87c1.26,6.68,0.71,13.27-1.63,19.66c-4.49,12.26-13.4,18.99-26.26,20.61 c-1.69,0.21-3.41,0.28-5.12,0.29c-7.03,0.03-14.07,0.01-21.11,0.01c-1.02,0-2.03,0-3.15,0C676.01,47.82,676.01,25.73,676.01,3.49z M684.6,11.63c-0.56,2.82-0.48,48.12,0.11,50.3c6.34,0,12.73,0.4,19.04-0.1c8.17-0.64,14.6-4.63,18.57-12 c2.78-5.15,3.69-10.69,3.13-16.54c-1.11-11.64-9.06-20.3-20.72-21.49c-6.58-0.67-13.27-0.27-19.92-0.35 C684.75,11.45,684.67,11.57,684.6,11.63z"/>
      <path d="M765.49,36.69c0.17-4.24,0.74-8.37,2.15-12.35C771.64,13.1,779.31,5.73,791,3.09c10.87-2.46,21.18-1.09,30.26,5.95 c3.2,2.48,5.79,5.54,7.64,9.12c6.01,11.7,6.68,23.68,1.02,35.66c-4.7,9.93-12.87,15.47-23.61,17.31 c-5.7,0.98-11.4,0.75-16.96-0.82c-12.8-3.62-20.1-12.39-22.85-25.15C765.9,42.39,765.81,39.52,765.49,36.69z M825.46,37.18 c-0.06-1.1-0.1-1.86-0.15-2.62c-0.74-11.81-8.29-23.83-23.93-24.72c-9.22-0.53-17.09,2.39-22.47,10.28 c-4.31,6.32-5.48,13.4-4.59,20.94c1.66,14.13,11.92,23.14,26.14,22.82c8.64-0.19,15.69-3.45,20.51-10.81 C824.18,48.15,825.51,42.67,825.46,37.18z"/>
      <path d="M485.1,56.15c2.15-1.32,4.16-2.56,6.23-3.84c0.35,0.41,0.63,0.66,0.82,0.96c4.37,6.91,10.84,10.15,18.81,10.66 c4.89,0.31,9.7-0.16,14.21-2.28c3.63-1.71,6.22-4.32,6.81-8.5c0.58-4.09-0.72-7.49-4.36-9.42c-2.81-1.49-5.92-2.59-9.02-3.34 c-5.07-1.22-10.3-1.81-15.36-3.07c-3-0.74-5.97-1.96-8.68-3.46c-8.78-4.86-9.46-17.86-3.04-24.22c2.2-2.18,4.71-3.84,7.58-4.96 c9.25-3.6,18.57-3.7,27.83-0.17c4.84,1.84,8.54,5.19,11.39,9.9c-2.11,1.3-4.09,2.53-5.99,3.7c-1.65-1.51-2.96-3.08-4.61-4.14 c-8.51-5.49-17.44-6.02-26.53-1.6c-1.63,0.79-3.12,2.23-4.2,3.71c-2.48,3.39-1.73,8.05,1.48,10.77c2.47,2.09,5.45,3.09,8.53,3.74 c4.18,0.88,8.44,1.41,12.59,2.39c3.59,0.85,7.19,1.84,10.59,3.24c13.19,5.41,12.81,23,2.85,29.93c-3.42,2.38-7.2,3.81-11.25,4.62 c-8.12,1.62-16.07,1.12-23.79-2C492.1,66.39,487.39,61.8,485.1,56.15z"/>
      <path d="M606.26,3.47c2.84,0,5.36,0,8.26,0c0,1.15,0,2.17,0,3.18c0,12.07-0.05,24.15,0.04,36.22c0.02,2.54,0.21,5.16,0.84,7.62 c2.21,8.55,9.73,13.82,18.81,13.45c10.09-0.42,17.26-7.28,18.11-17.38c0.15-1.8,0.21-3.61,0.21-5.41 c0.02-11.41,0.01-22.82,0.01-34.23c0-1.11,0-2.23,0-3.44c2.9,0,5.42,0,8.12,0c0.07,0.96,0.17,1.79,0.17,2.62 c0.01,12.65,0,25.29,0,37.94c0,3.64-0.54,7.2-1.75,10.64c-2.56,7.24-7.45,12.29-14.61,15.04c-7.22,2.77-14.54,2.7-21.74-0.01 c-9.29-3.5-14.41-10.48-16.1-20.11c-0.34-1.96-0.5-3.97-0.5-5.96c-0.05-12.55-0.03-25.1-0.02-37.65 C606.12,5.22,606.2,4.48,606.26,3.47z"/>
      <path d="M575.33,70.12c-2.79,0-5.31,0-8.07,0c0-19.75,0-39.32,0-59.25c-7.69,0-15.15,0-22.76,0c0-2.61,0-4.85,0-7.09 c2.04-0.56,48.81-0.75,53.42-0.2c0.52,2.26,0.27,4.57,0.13,7.2c-7.51,0-14.89,0-22.65,0c-0.14,6.82-0.05,13.34-0.06,19.86 c-0.02,6.56,0,13.13,0,19.69C575.33,56.87,575.33,63.42,575.33,70.12z"/>
      <path d="M745.88,3.48c2.7,0,5.22,0,7.94,0c0,22.22,0,44.32,0,66.62c-2.64,0-5.23,0-7.94,0C745.88,47.84,745.88,25.74,745.88,3.48z"/>
    </g>
  </g>
</svg>
